<?xml version="1.0" encoding="utf-8"?>
<!-- Generator: Adobe Illustrator 16.0.0, SVG Export Plug-In . SVG Version: 6.00 Build 0)  -->
<!DOCTYPE svg PUBLIC "-//W3C//DTD SVG 1.0//EN" "http://www.w3.org/TR/2001/REC-SVG-20010904/DTD/svg10.dtd">
<svg version="1.0" id="Layer_1" xmlns="http://www.w3.org/2000/svg" xmlns:xlink="http://www.w3.org/1999/xlink" x="0px" y="0px"
	 width="185px" height="99.277px" viewBox="0 0 185 99.277" enable-background="new 0 0 185 99.277" xml:space="preserve">
<g>
	<g opacity="0.4">
		<path d="M29.5,3.5h130c13.75,0,25,11.25,25,25v38.563c0,8.234-4.038,15.57-10.23,20.133c-0.004,2.666,1.277,7.084,8.521,10.887
			c0,0-13.725,3.713-27.945-6.02H29.5c-13.75,0-25-11.25-25-25V28.5C4.5,14.75,15.75,3.5,29.5,3.5z"/>
		<path fill="none" stroke="#000000" stroke-miterlimit="10" d="M29.5,3.5h130c13.75,0,25,11.25,25,25v38.563
			c0,8.234-4.038,15.57-10.23,20.133c-0.004,2.666,1.277,7.084,8.521,10.887c0,0-13.725,3.713-27.945-6.02H29.5
			c-13.75,0-25-11.25-25-25V28.5C4.5,14.75,15.75,3.5,29.5,3.5z"/>
	</g>
	<g>
		<path fill="#FFFFFF" d="M25.5,0.5h130c13.75,0,25,11.25,25,25v38.563c0,8.234-4.038,15.57-10.23,20.133
			c-0.004,2.666,1.277,7.084,8.521,10.887c0,0-13.725,3.713-27.945-6.02H25.5c-13.75,0-25-11.25-25-25V25.5
			C0.5,11.75,11.75,0.5,25.5,0.5z"/>
		
			<linearGradient id="SVGID_1_" gradientUnits="userSpaceOnUse" x1="-670.0566" y1="48.1387" x2="-489.0566" y2="48.1387" gradientTransform="matrix(-1 0 0 1 -489.0566 0)">
			<stop  offset="0.1344" style="stop-color:#00AEEF"/>
			<stop  offset="1" style="stop-color:#0048C5"/>
		</linearGradient>
		<path fill="none" stroke="url(#SVGID_1_)" stroke-miterlimit="10" d="M25.5,0.5h130c13.75,0,25,11.25,25,25v38.563
			c0,8.234-4.038,15.57-10.23,20.133c-0.004,2.666,1.277,7.084,8.521,10.887c0,0-13.725,3.713-27.945-6.02H25.5
			c-13.75,0-25-11.25-25-25V25.5C0.5,11.75,11.75,0.5,25.5,0.5z"/>
	</g>
</g>
<g>
</g>
<g>
</g>
<g>
</g>
<g>
</g>
<g>
</g>
<g>
</g>
<g>
</g>
<g>
</g>
<g>
</g>
<g>
</g>
<g>
</g>
<g>
</g>
<g>
</g>
<g>
</g>
<g>
</g>
</svg>
