<?xml version="1.0" encoding="utf-8"?>
<!-- Generator: Adobe Illustrator 16.0.0, SVG Export Plug-In . SVG Version: 6.00 Build 0)  -->
<!DOCTYPE svg PUBLIC "-//W3C//DTD SVG 1.1//EN" "http://www.w3.org/Graphics/SVG/1.1/DTD/svg11.dtd">
<svg version="1.1" id="Layer_1" xmlns="http://www.w3.org/2000/svg" xmlns:xlink="http://www.w3.org/1999/xlink" x="0px" y="0px"
	 width="167.775px" height="93.277px" viewBox="8.612 4.222 167.775 93.277" enable-background="new 8.612 4.222 167.775 93.277"
	 xml:space="preserve">
<g>
	<g opacity="0.4">
		<path d="M152.725,8.722H32.275c-12.739,0-23.163,10.423-23.163,23.163v35.729c0,7.631,3.741,14.427,9.479,18.654
			c0.004,2.469-1.184,6.563-7.896,10.087c0,0,12.717,3.439,25.893-5.578h116.137c12.739,0,23.163-10.423,23.163-23.163V31.885
			C175.888,19.145,165.464,8.722,152.725,8.722z"/>
		<path fill="none" stroke="#000000" stroke-miterlimit="10" d="M152.725,8.722H32.275c-12.739,0-23.163,10.423-23.163,23.163
			v35.729c0,7.631,3.741,14.427,9.479,18.654c0.004,2.469-1.184,6.563-7.896,10.087c0,0,12.717,3.439,25.893-5.578h116.137
			c12.739,0,23.163-10.423,23.163-23.163V31.885C175.888,19.145,165.464,8.722,152.725,8.722z"/>
	</g>
	<g>
		<path fill="#FFFFFF" d="M152.725,4.722H32.275c-12.739,0-23.163,10.423-23.163,23.163v35.729c0,7.631,3.741,14.427,9.479,18.654
			c0.004,2.469-1.184,6.563-7.896,10.087c0,0,12.717,3.439,25.893-5.578h116.137c12.739,0,23.163-10.423,23.163-23.163V27.885
			C175.888,15.145,165.464,4.722,152.725,4.722z"/>
		<linearGradient id="SVGID_1_" gradientUnits="userSpaceOnUse" x1="8.6123" y1="48.8611" x2="176.3877" y2="48.8611">
			<stop  offset="0.1344" style="stop-color:#00AEEF"/>
			<stop  offset="1" style="stop-color:#0048C5"/>
		</linearGradient>
		<path fill="none" stroke="url(#SVGID_1_)" stroke-miterlimit="10" d="M152.725,4.722H32.275
			c-12.739,0-23.163,10.423-23.163,23.163v35.729c0,7.631,3.741,14.427,9.479,18.654c0.004,2.469-1.184,6.563-7.896,10.087
			c0,0,12.717,3.439,25.893-5.578h116.137c12.739,0,23.163-10.423,23.163-23.163V27.885C175.888,15.145,165.464,4.722,152.725,4.722
			z"/>
	</g>
</g>
</svg>
