<svg version="1.1" id="Layer_1" xmlns="http://www.w3.org/2000/svg" xmlns:xlink="http://www.w3.org/1999/xlink" x="0px" y="0px"
	 width="287px" height="512.167px" viewBox="0 0 287 512.167" enable-background="new 0 0 287 512.167" xml:space="preserve">
<path opacity="0.2" fill="#455056" enable-background="new    " d="M265.916,510.416c0,1.486-54.92,1.684-122.667,1.684
	c-67.746,0-122.666-0.195-122.666-1.684c0-1.486,54.92-2.691,122.666-2.691C210.996,507.724,265.916,508.929,265.916,510.416z"/>
<radialGradient id="SVGID_1_" cx="165.4814" cy="106.8418" r="89.4813" gradientTransform="matrix(1.1341 0 0 -1 -44.1715 617.167)" gradientUnits="userSpaceOnUse">
	<stop  offset="0" style="stop-color:#000000"/>
	<stop  offset="0.8587" style="stop-color:#000000;stop-opacity:0.1413"/>
	<stop  offset="1" style="stop-color:#000000;stop-opacity:0"/>
</radialGradient>
<path opacity="0.5" fill="url(#SVGID_1_)" enable-background="new    " d="M287,511.056c0,1.422-64.598,1.072-143.849,1.072
	C63.897,512.128,0,512.478,0,511.056c0-1.42,64.247-2.572,143.499-2.572C222.753,508.484,287,509.636,287,511.056z"/>
<path fill="#FFFFFF" stroke="#96938F" stroke-miterlimit="10" d="M241.964,0.5H45.149c-15.53,0-28.119,12.59-28.119,28.12v453.006
	c0,15.529,12.589,28.119,28.119,28.119h196.814c15.531,0,28.121-12.59,28.121-28.119V28.62C270.085,13.09,257.495,0.5,241.964,0.5z
	 M259.584,449.695H27.499V49.299h232.085V449.695z"/>
<g>
	<path fill="#EFEFF0" d="M241.964,3H45.149C31.023,3,19.53,14.492,19.53,28.62v453.006c0,14.125,11.493,25.619,25.619,25.619
		h196.814c14.128,0,25.621-11.494,25.621-25.619V28.62C267.585,14.492,256.092,3,241.964,3z M259.6,449.669H27.515V49.273H259.6
		V449.669z"/>
	<path fill="#41464C" d="M171.124,30.421c0,0.528-0.317,0.958-0.711,0.958h-53.368c-0.394,0-0.712-0.43-0.712-0.958l0,0
		c0-0.529,0.318-0.958,0.712-0.958h53.368C170.807,29.463,171.124,29.892,171.124,30.421L171.124,30.421z"/>
	<circle fill="#282C30" cx="88.61" cy="30.213" r="4.747"/>
	<path fill="#4E6271" d="M88.61,27.142c-1.697,0-3.072,1.374-3.072,3.071c0,1.695,1.375,3.07,3.072,3.07
		c1.697,0,3.072-1.375,3.072-3.07C91.683,28.516,90.308,27.142,88.61,27.142z M88.61,31.126c-0.505,0-0.912-0.409-0.912-0.913
		s0.407-0.914,0.912-0.914c0.504,0,0.912,0.41,0.912,0.914S89.114,31.126,88.61,31.126z"/>
</g>
<rect x="27.984" y="49.74" width="231.094" height="12.215"/>
<path fill-rule="evenodd" clip-rule="evenodd" fill="#FFFFFF" d="M256.474,56.236c0,0.598-0.328,1.082-0.928,1.082v-2.164
	C256.146,55.154,256.474,55.637,256.474,56.236 M255.237,54.226v4.02v0.006c0,0.511-0.414,0.921-0.928,0.921h-12.057
	c-0.512,0-0.928-0.41-0.928-0.921v-0.006v-4.02c0-0.512,0.416-0.928,0.928-0.928h12.057
	C254.823,53.298,255.237,53.714,255.237,54.226 M242.253,53.607c-0.342,0-0.617,0.277-0.617,0.619v4.02
	c0,0.341,0.275,0.618,0.617,0.618h12.057c0.342,0,0.619-0.277,0.619-0.618v-4.02c0-0.342-0.277-0.619-0.619-0.619H242.253z
	 M241.944,54.226v4.02c0,0.171,0.139,0.309,0.309,0.309h12.057c0.172,0,0.309-0.138,0.309-0.309v-4.02
	c0-0.17-0.137-0.309-0.309-0.309h-12.057C242.083,53.917,241.944,54.056,241.944,54.226"/>
<text transform="matrix(1 0 0 1 220.5693 58.6948)" fill="#FFFFFF" font-family="'SFUIText-Regular'" font-size="7.4201">100%</text>
<path fill="#FFFFFF" d="M59.376,53.298c1.303,0,2.618,0.512,3.713,1.445l-0.495,0.547c-0.902-0.758-2.041-1.175-3.218-1.175
	s-2.315,0.415-3.215,1.171l-0.492-0.548C56.76,53.809,58.075,53.298,59.376,53.298 M59.376,55.22c0.879,0,1.75,0.323,2.46,0.913
	l-0.529,0.586c-0.545-0.441-1.229-0.685-1.931-0.685s-1.384,0.242-1.931,0.683l-0.528-0.587
	C57.628,55.542,58.497,55.22,59.376,55.22 M59.376,57.114c0.412,0,0.832,0.152,1.188,0.429l-1.188,1.321l-1.189-1.322
	C58.544,57.265,58.965,57.114,59.376,57.114"/>
<path fill-rule="evenodd" clip-rule="evenodd" fill="#FFFFFF" d="M33.717,54.536c0.939,0,1.7,0.761,1.7,1.7
	c0,0.938-0.761,1.7-1.7,1.7s-1.7-0.762-1.7-1.7C32.017,55.296,32.777,54.536,33.717,54.536 M51.03,54.536
	c-0.938,0-1.7,0.761-1.7,1.7c0,0.938,0.762,1.7,1.7,1.7c0.94,0,1.701-0.762,1.701-1.7C52.731,55.296,51.971,54.536,51.03,54.536
	 M46.702,54.536c-0.938,0-1.7,0.761-1.7,1.7c0,0.938,0.762,1.7,1.7,1.7c0.939,0,1.7-0.762,1.7-1.7
	C48.402,55.296,47.642,54.536,46.702,54.536 M42.373,54.536c-0.938,0-1.701,0.761-1.701,1.7c0,0.938,0.763,1.7,1.701,1.7
	c0.939,0,1.701-0.762,1.701-1.7C44.074,55.296,43.313,54.536,42.373,54.536 M38.046,54.536c-0.939,0-1.701,0.761-1.701,1.7
	c0,0.938,0.762,1.7,1.701,1.7c0.938,0,1.699-0.762,1.699-1.7C39.745,55.296,38.984,54.536,38.046,54.536"/>
<text transform="matrix(1 0 0 1 131.25 58.2466)" fill="#FFFFFF" font-family="'NotoSans'" font-size="7" id="hora">9:41AM</text>

</svg>
