<?xml version="1.0" encoding="utf-8"?>
<!-- Generator: Adobe Illustrator 16.0.0, SVG Export Plug-In . SVG Version: 6.00 Build 0)  -->
<!DOCTYPE svg PUBLIC "-//W3C//DTD SVG 1.1//EN" "http://www.w3.org/Graphics/SVG/1.1/DTD/svg11.dtd">
<svg version="1.1" id="Layer_1" xmlns="http://www.w3.org/2000/svg" xmlns:xlink="http://www.w3.org/1999/xlink" x="0px" y="0px"
	 width="124.941px" height="163.588px" viewBox="0 0 124.941 163.588" enable-background="new 0 0 124.941 163.588"
	 xml:space="preserve">
<line fill="#EAAC47" stroke="#7A151A" stroke-miterlimit="10" x1="53.886" y1="145.079" x2="55.04" y2="151.823"/>
<line fill="#EAAC47" stroke="#7A151A" stroke-miterlimit="10" x1="70.195" y1="145.307" x2="69.07" y2="151.823"/>
<line fill="#EAAC47" stroke="#7A151A" stroke-linecap="square" stroke-miterlimit="10" x1="62.041" y1="145.079" x2="62.041" y2="153.661"/>
<path fill="#2B7EC9" stroke="#2B7EC9" stroke-miterlimit="10" d="M124.441,52.294c0-29.361-27.746-51.733-61.971-51.733
	C28.246,0.561,0.5,23.938,0.5,53.302c0,14.646,4.999,27.141,13.352,36.689h-0.023l33.058,40.048h31.002l33.479-40.048h-0.04
	C119.536,80.406,124.441,67.69,124.441,52.294z"/>
<path fill="#CC1D2A" stroke="#CC1D2A" stroke-linecap="round" stroke-linejoin="round" stroke-miterlimit="10" d="M53.886,151.823
	v7.258h0.001c0.02,3.018,3.661,4.007,8.153,4.007c4.493,0,8.135-0.989,8.155-4.007l0,0v-7.258H53.886z"/>
<path fill="#CC1D2A" stroke="#CC1D2A" stroke-linecap="round" stroke-linejoin="round" stroke-miterlimit="10" d="M46.886,130.039
	h31.002c0,0-5.74,8.292-6.854,15.04H53.163C51.17,135.577,46.886,130.039,46.886,130.039z"/>
<line fill="#CE4141" stroke="#CE4141" stroke-linecap="round" stroke-linejoin="round" stroke-miterlimit="10" x1="55.836" y1="151.79" x2="55.836" y2="158.369"/>
<line fill="#CE4141" stroke="#CE4141" stroke-linecap="round" stroke-linejoin="round" stroke-miterlimit="10" x1="58.982" y1="151.79" x2="58.982" y2="158.369"/>
<line fill="#CE4141" stroke="#CE4141" stroke-linecap="round" stroke-linejoin="round" stroke-miterlimit="10" x1="62.128" y1="151.79" x2="62.128" y2="158.369"/>
<line fill="#CE4141" stroke="#CE4141" stroke-linecap="round" stroke-linejoin="round" stroke-miterlimit="10" x1="65.273" y1="151.79" x2="65.273" y2="158.369"/>
<line fill="#CE4141" stroke="#CE4141" stroke-linecap="round" stroke-linejoin="round" stroke-miterlimit="10" x1="68.42" y1="151.79" x2="68.42" y2="158.369"/>
<line fill="#CE4141" stroke="#CE4141" stroke-linecap="round" stroke-linejoin="round" stroke-miterlimit="10" x1="53.389" y1="154.182" x2="70.639" y2="154.182"/>
<line fill="#CE4141" stroke="#CE4141" stroke-linecap="round" stroke-linejoin="round" stroke-miterlimit="10" x1="53.389" y1="156.505" x2="70.639" y2="156.505"/>
<line fill="#CE4141" stroke="#CE4141" stroke-linecap="round" stroke-linejoin="round" stroke-miterlimit="10" x1="53.503" y1="158.791" x2="70.753" y2="158.791"/>
<rect x="53.844" y="151.3" fill="#7A151A" stroke="#7A151A" stroke-linecap="round" stroke-linejoin="round" stroke-miterlimit="10" width="16.351" height="0.674"/>
<path fill="#FFB93E" stroke="#FFB93E" stroke-miterlimit="10" d="M106.769,52.294c0-29.361-19.832-51.733-44.297-51.733
	c-24.465,0-44.297,23.378-44.297,52.741c0,14.646,3.574,27.141,9.544,36.689h-0.017l24.51,40.048H72.42l25.004-40.048h-0.028
	C103.264,80.406,106.769,67.69,106.769,52.294z"/>
<path fill="#2B7EC9" stroke="#2B7EC9" stroke-miterlimit="10" d="M85.301,52.294c0-29.361-10.221-51.733-22.83-51.733
	S39.64,23.938,39.64,53.302c0,14.646,1.842,27.141,4.918,36.689H44.55l12.987,40.048h9.801l13.146-40.048h-0.014
	C83.494,80.406,85.301,67.69,85.301,52.294z"/>
<path fill="#CE4141" stroke="#CE4141" stroke-linecap="round" stroke-linejoin="round" stroke-miterlimit="10" d="M52.079,130.039
	h20.378c0,0-3.773,8.292-4.506,15.04H56.205C54.895,135.577,52.079,130.039,52.079,130.039z"/>
<path fill="#CC1D2A" stroke="#CC1D2A" stroke-linecap="round" stroke-linejoin="round" stroke-miterlimit="10" d="M57.394,130.039
	h9.94c0,0-1.84,8.292-2.197,15.04h-5.73C58.768,135.577,57.394,130.039,57.394,130.039z"/>
<linearGradient id="SVGID_1_" gradientUnits="userSpaceOnUse" x1="62.4536" y1="-80.1611" x2="64.9569" y2="47.5084">
	<stop  offset="0" style="stop-color:#FFFFFF"/>
	<stop  offset="1" style="stop-color:#FFFFFF;stop-opacity:0"/>
</linearGradient>
<path opacity="0.4" fill="url(#SVGID_1_)" d="M72.457,1.208c0,0,32.38,8.203,34.312,45.536c0.712,13.771,0,37-14.349,52.75
	c-22.8,25.026-49.191,15.867-49.191,15.867S2.584,42.544,36.67,9.744C46.17,0.603,61.17-1.756,72.457,1.208z"/>
</svg>
