<svg version="1.0" id="Layer_1" xmlns="http://www.w3.org/2000/svg" xmlns:xlink="http://www.w3.org/1999/xlink" x="0px" y="0px"
	 width="643.327px" height="117.879px" viewBox="0 0 643.327 117.879" enable-background="new 0 0 643.327 117.879"
	 xml:space="preserve">
<path fill="#FFFFFF" d="M46.78,107.012c-12.927,0-23.958-4.568-33.085-13.699C4.565,84.184,0,73.158,0,60.23v-1.945
	c0-12.881,4.565-23.908,13.694-33.086c9.128-9.129,20.159-13.693,33.085-13.693h10.091c2.21,0,4.107,0.793,5.691,2.379
	c1.588,1.586,2.381,3.484,2.381,5.693c0,2.258-0.792,4.182-2.381,5.765c-1.584,1.539-3.481,2.31-5.691,2.31H46.78
	c-8.458,0-15.67,3.002-21.627,9.008c-6.004,5.959-9.004,13.168-9.004,21.625v1.945c0,8.459,3,15.664,9.004,21.624
	c5.957,6.007,13.169,9.011,21.627,9.011h1.947V79.907h-7.929c-2.258,0-4.162-0.792-5.698-2.377
	c-1.584-1.587-2.375-3.509-2.375-5.769c0-2.207,0.791-4.108,2.375-5.691c1.537-1.586,3.44-2.381,5.698-2.381h16.073
	c2.21,0,4.107,0.795,5.691,2.381c1.588,1.583,2.381,3.484,2.381,5.691v27.174c0,2.213-0.792,4.111-2.381,5.692
	c-1.584,1.59-3.481,2.384-5.691,2.384H46.78z"/>
<path fill="#FFFFFF" d="M589.412,107.012c-2.264,0-4.184-0.794-5.771-2.384c-1.584-1.581-2.375-3.505-2.375-5.765V73.65V19.219
	c0-2.261,0.791-4.18,2.375-5.768c1.588-1.587,3.508-2.381,5.771-2.381h19.528c9.469,0,17.564,3.367,24.295,10.094
	c6.723,6.725,10.092,14.824,10.092,24.288c0,8.557-2.835,16.05-8.512,22.491c5.677,4.373,8.512,10.117,8.512,17.226
	c0,6.007-2.142,11.151-6.415,15.425c-4.281,4.276-9.416,6.418-15.431,6.418H589.412z M597.486,63.399h11.454
	c5.003,0,9.277-1.753,12.832-5.261c3.514-3.507,5.263-7.734,5.263-12.687c0-4.995-1.749-9.271-5.263-12.828
	c-3.555-3.505-7.829-5.261-12.832-5.261h-11.454V63.399z M597.486,90.791h23.995c1.54,0,2.858-0.551,3.97-1.656
	c1.054-1.105,1.584-2.429,1.584-3.966c0-1.536-0.53-2.835-1.584-3.888c-1.111-1.11-2.43-1.663-3.97-1.663h-23.995V90.791z"/>
<path fill="#FFFFFF" d="M168.239,106.18c-5.766-2.594-10.354-6.51-13.773-11.748c-3.408-5.284-5.114-11.073-5.114-17.369v-58.17
	c0-2.113,0.746-3.916,2.236-5.404c1.486-1.49,3.29-2.235,5.409-2.235c2.065,0,3.843,0.745,5.333,2.235
	c1.486,1.488,2.23,3.291,2.23,5.404v58.17c0,3.265,0.913,6.296,2.741,9.08c1.776,2.738,4.154,4.783,7.134,6.129
	c1.924,0.861,3.27,2.278,4.039,4.25c0.721,1.97,0.646,3.893-0.219,5.766c-1.345,3.028-3.65,4.542-6.917,4.542
	C170.232,106.829,169.199,106.613,168.239,106.18z"/>
<path fill="#FFFFFF" d="M370.346,58.939c0,32.553-26.387,58.939-58.937,58.939c-32.556,0-58.944-26.387-58.944-58.939
	C252.465,26.391,278.854,0,311.409,0C343.959,0,370.346,26.391,370.346,58.939z"/>
<path fill="#FFFFFF" d="M474.321,8.597c-27.049,0-48.973,21.921-48.973,48.973c0,27.047,21.924,48.972,48.973,48.972
	s48.981-21.925,48.981-48.972C523.303,30.518,501.37,8.597,474.321,8.597z M474.121,84.22c-14.882,0-26.962-12.071-26.962-26.965
	s12.08-26.968,26.962-26.968c14.899,0,26.975,12.074,26.975,26.968S489.021,84.22,474.121,84.22z"/>
</svg>
