<?xml version="1.0" encoding="utf-8"?>
<!-- Generator: Adobe Illustrator 16.0.0, SVG Export Plug-In . SVG Version: 6.00 Build 0)  -->
<!DOCTYPE svg PUBLIC "-//W3C//DTD SVG 1.0//EN" "http://www.w3.org/TR/2001/REC-SVG-20010904/DTD/svg10.dtd">
<svg version="1.0" id="Layer_1" xmlns="http://www.w3.org/2000/svg" xmlns:xlink="http://www.w3.org/1999/xlink" x="0px" y="0px"
	 width="78px" height="78px" viewBox="0 0 78 78" enable-background="new 0 0 78 78" xml:space="preserve">
<g>
	<circle fill="#D3DCE2" cx="39" cy="39" r="39"/>
	<g>
		<path fill="#624540" d="M39.597,63.927c-5.817,0-10.555-4.735-10.555-10.557c0-0.284,0.019-0.561,0.041-0.836
			c0.068-0.89,0.845-1.553,1.729-1.482c0.886,0.065,1.548,0.84,1.482,1.725c-0.015,0.198-0.033,0.396-0.033,0.594
			c0,4.043,3.288,7.333,7.335,7.333c4.044,0,7.333-3.29,7.333-7.333c0-0.198-0.012-0.392-0.03-0.581
			c-0.072-0.89,0.587-1.667,1.474-1.737c0.867-0.07,1.664,0.585,1.735,1.47c0.025,0.28,0.044,0.564,0.044,0.849
			C50.152,59.191,45.415,63.927,39.597,63.927z"/>
		<g>
			<path fill="#83AFC6" d="M23.617,49.018c0,2.569-3.368,4.648-7.516,4.648c-4.148,0-7.515-2.079-7.515-4.648
				s3.366-4.648,7.515-4.648C20.249,44.369,23.617,46.448,23.617,49.018z"/>
			<path fill="#83AFC6" d="M69.413,49.018c0,2.569-3.364,4.648-7.515,4.648c-4.147,0-7.516-2.079-7.516-4.648
				s3.368-4.648,7.516-4.648C66.049,44.369,69.413,46.448,69.413,49.018z"/>
		</g>
		<g>
			<path fill="#624540" d="M16.342,29.687c-4.807,0-8.717,3.911-8.717,8.712c0,4.806,3.91,8.717,8.717,8.717
				c4.803,0,8.713-3.911,8.713-8.717C25.055,33.598,21.145,29.687,16.342,29.687z M13.717,43.414c-1.319,0-2.386-1.07-2.386-2.384
				c0-1.322,1.066-2.389,2.386-2.389c1.315,0,2.387,1.066,2.387,2.389C16.104,42.344,15.032,43.414,13.717,43.414z M17.295,38.625
				c-0.648,0-1.176-0.526-1.176-1.178c0-0.65,0.527-1.177,1.176-1.177s1.176,0.526,1.176,1.177
				C18.471,38.099,17.943,38.625,17.295,38.625z"/>
			<path fill="#624540" d="M62.854,29.687c-4.806,0-8.715,3.911-8.715,8.712c0,4.806,3.909,8.717,8.715,8.717
				c4.803,0,8.714-3.911,8.714-8.717C71.568,33.598,67.657,29.687,62.854,29.687z M60.231,43.414c-1.319,0-2.386-1.07-2.386-2.384
				c0-1.322,1.066-2.389,2.386-2.389c1.315,0,2.386,1.066,2.386,2.389C62.617,42.344,61.547,43.414,60.231,43.414z M63.808,38.625
				c-0.648,0-1.176-0.526-1.176-1.178c0-0.65,0.527-1.177,1.176-1.177c0.65,0,1.178,0.526,1.178,1.177
				C64.985,38.099,64.458,38.625,63.808,38.625z"/>
		</g>
	</g>
</g>
<g>
</g>
<g>
</g>
<g>
</g>
<g>
</g>
<g>
</g>
<g>
</g>
<g>
</g>
<g>
</g>
<g>
</g>
<g>
</g>
<g>
</g>
<g>
</g>
<g>
</g>
<g>
</g>
<g>
</g>
</svg>
