<?xml version="1.0" encoding="utf-8"?>
<!-- Generator: Adobe Illustrator 16.0.0, SVG Export Plug-In . SVG Version: 6.00 Build 0)  -->
<!DOCTYPE svg PUBLIC "-//W3C//DTD SVG 1.0//EN" "http://www.w3.org/TR/2001/REC-SVG-20010904/DTD/svg10.dtd">
<svg version="1.0" id="Layer_1" xmlns="http://www.w3.org/2000/svg" xmlns:xlink="http://www.w3.org/1999/xlink" x="0px" y="0px"
	 width="78px" height="78px" viewBox="0 0 78 78" enable-background="new 0 0 78 78" xml:space="preserve">
<g>
	<circle fill="#D3DCE2" cx="39" cy="39" r="39"/>
	<g>
		<path fill="#624540" d="M16.435,37.521l4.055-4.057c0.698-0.696,0.698-1.828,0-2.527c-0.698-0.7-1.83-0.7-2.53,0l-4.053,4.053
			l-4.053-4.053c-0.7-0.7-1.834-0.7-2.531,0c-0.698,0.696-0.698,1.831,0,2.527l4.053,4.057l-4.053,4.053
			c-0.698,0.7-0.698,1.832,0,2.528c0.35,0.35,0.807,0.525,1.264,0.525c0.459,0,0.918-0.176,1.266-0.525l4.055-4.053l4.053,4.053
			c0.351,0.35,0.808,0.525,1.265,0.525c0.458,0,0.917-0.176,1.266-0.525c0.698-0.696,0.698-1.828,0-2.528L16.435,37.521z"/>
		<path fill="#624540" d="M64.284,28.97c-4.804,0-8.714,3.91-8.714,8.716c0,4.807,3.91,8.713,8.714,8.713
			c4.805,0,8.715-3.906,8.715-8.713C72.999,32.88,69.089,28.97,64.284,28.97z M61.662,42.699c-1.317,0-2.386-1.067-2.386-2.389
			c0-1.317,1.068-2.386,2.386-2.386s2.385,1.068,2.385,2.386C64.047,41.632,62.979,42.699,61.662,42.699z M65.24,37.911
			c-0.65,0-1.177-0.528-1.177-1.179c0-0.649,0.526-1.175,1.177-1.175c0.649,0,1.175,0.525,1.175,1.175
			C66.415,37.383,65.89,37.911,65.24,37.911z"/>
	</g>
	<g>
		<path fill="#624540" d="M51.125,56.676c0-0.989-0.802-1.829-1.789-1.829h-17.89c-0.989,0-1.789,0.84-1.789,1.829
			c0,0.988,0.8,1.828,1.789,1.828h6.534v4.467c0,3.553,2.848,6.441,6.398,6.441c3.552,0,6.399-2.889,6.399-6.441v-5.281
			C50.979,57.393,51.125,57.054,51.125,56.676z M44.379,65.834c-1.578,0-2.742-1.285-2.742-2.863v-4.467h5.485v4.467
			C47.122,64.549,45.958,65.834,44.379,65.834z"/>
	</g>
</g>
<g>
</g>
<g>
</g>
<g>
</g>
<g>
</g>
<g>
</g>
<g>
</g>
<g>
</g>
<g>
</g>
<g>
</g>
<g>
</g>
<g>
</g>
<g>
</g>
<g>
</g>
<g>
</g>
<g>
</g>
</svg>
