<?xml version="1.0" encoding="utf-8"?>
<!-- Generator: Adobe Illustrator 16.0.0, SVG Export Plug-In . SVG Version: 6.00 Build 0)  -->
<!DOCTYPE svg PUBLIC "-//W3C//DTD SVG 1.0//EN" "http://www.w3.org/TR/2001/REC-SVG-20010904/DTD/svg10.dtd">
<svg version="1.0" id="Layer_1" xmlns="http://www.w3.org/2000/svg" xmlns:xlink="http://www.w3.org/1999/xlink" x="0px" y="0px"
	 width="78px" height="78px" viewBox="0 0 78 78" enable-background="new 0 0 78 78" xml:space="preserve">
<g>
	<circle fill="#D3DCE2" cx="39" cy="39" r="39"/>
	<g>
		<g>
			<path fill="#624540" d="M22.462,42.14c-0.989,0-1.79-0.8-1.79-1.788c0-3.31-2.692-6.001-6.002-6.001
				c-3.308,0-6.001,2.691-6.001,6.001c0,0.988-0.8,1.788-1.789,1.788c-0.987,0-1.79-0.8-1.79-1.788c0-5.283,4.298-9.581,9.58-9.581
				c5.284,0,9.579,4.298,9.579,9.581C24.249,41.34,23.449,42.14,22.462,42.14z"/>
			<path fill="#624540" d="M72.466,42.14c-0.987,0-1.788-0.8-1.788-1.788c0-3.31-2.694-6.001-6.001-6.001
				c-3.31,0-6.002,2.691-6.002,6.001c0,0.988-0.802,1.788-1.79,1.788s-1.787-0.8-1.787-1.788c0-5.283,4.297-9.581,9.579-9.581
				c5.281,0,9.579,4.298,9.579,9.581C74.256,41.34,73.454,42.14,72.466,42.14z"/>
		</g>
		<g>
			<path fill="#624540" d="M39.672,65.597c-5.819,0-10.554-4.736-10.554-10.558c0-0.279,0.019-0.557,0.04-0.835
				c0.064-0.839,0.764-1.488,1.605-1.488h17.819c0.837,0,1.535,0.644,1.603,1.479c0.024,0.28,0.042,0.562,0.042,0.845
				C50.228,60.86,45.493,65.597,39.672,65.597z M32.392,55.934c0.443,3.624,3.54,6.443,7.28,6.443c3.743,0,6.839-2.819,7.28-6.443
				H32.392z"/>
		</g>
	</g>
	<g>
		<ellipse fill="#83AFC6" cx="16.103" cy="49.734" rx="7.514" ry="4.649"/>
		<path fill="#83AFC6" d="M69.412,49.734c0,2.566-3.363,4.649-7.512,4.649c-4.149,0-7.516-2.083-7.516-4.649
			c0-2.57,3.366-4.653,7.516-4.653C66.049,45.081,69.412,47.164,69.412,49.734z"/>
	</g>
</g>
<g>
</g>
<g>
</g>
<g>
</g>
<g>
</g>
<g>
</g>
<g>
</g>
<g>
</g>
<g>
</g>
<g>
</g>
<g>
</g>
<g>
</g>
<g>
</g>
<g>
</g>
<g>
</g>
<g>
</g>
</svg>
