<?xml version="1.0" encoding="utf-8"?>
<!-- Generator: Adobe Illustrator 16.0.0, SVG Export Plug-In . SVG Version: 6.00 Build 0)  -->
<!DOCTYPE svg PUBLIC "-//W3C//DTD SVG 1.0//EN" "http://www.w3.org/TR/2001/REC-SVG-20010904/DTD/svg10.dtd">
<svg version="1.0" id="Layer_1" xmlns="http://www.w3.org/2000/svg" xmlns:xlink="http://www.w3.org/1999/xlink" x="0px" y="0px"
	 width="77.999px" height="77.998px" viewBox="0 0 77.999 77.998" enable-background="new 0 0 77.999 77.998" xml:space="preserve">
<g>
	<path fill="#D3DCE2" d="M77.999,39.001c0,21.539-17.461,38.997-39,38.997S0,60.54,0,39.001C0,17.458,17.46,0,38.999,0
		S77.999,17.458,77.999,39.001z"/>
	<g>
		<path fill="#624540" d="M30.371,33.989c0-0.988-0.8-1.788-1.789-1.788H5.683c-0.987,0-1.788,0.8-1.788,1.788
			c0,0.986,0.801,1.789,1.788,1.789h8.834c0,0.029-0.005,0.053-0.005,0.082c0,4.303,3.486,7.789,7.791,7.789
			c4.303,0,7.79-3.486,7.79-7.789c0-0.284-0.022-0.562-0.055-0.839C30.247,34.73,30.371,34.375,30.371,33.989z M25.164,40.071
			c-0.79,0-1.43-0.64-1.43-1.43s0.64-1.434,1.43-1.434c0.791,0,1.433,0.644,1.433,1.434S25.955,40.071,25.164,40.071z"/>
		<path fill="#624540" d="M74.738,33.989c0-0.988-0.802-1.788-1.789-1.788H50.051c-0.989,0-1.791,0.8-1.791,1.788
			c0,0.986,0.802,1.789,1.791,1.789h8.834c-0.002,0.029-0.005,0.053-0.005,0.082c0,4.303,3.486,7.789,7.789,7.789
			c4.302,0,7.792-3.486,7.792-7.789c0-0.284-0.023-0.562-0.056-0.839C74.614,34.73,74.738,34.375,74.738,33.989z M69.531,40.071
			c-0.79,0-1.43-0.64-1.43-1.43s0.64-1.434,1.43-1.434s1.432,0.644,1.432,1.434S70.321,40.071,69.531,40.071z"/>
		<path fill="#624540" d="M39.715,68.329c-0.129,0-0.258-0.014-0.388-0.043c-0.959-0.212-1.565-1.152-1.36-2.112
			c0.598-2.797,3.78-8.092,11.527-8.092c0.989,0,1.79,0.8,1.79,1.788c0,0.989-0.801,1.789-1.79,1.789
			c-6.615,0-7.906,4.74-8.034,5.279C41.27,67.764,40.529,68.329,39.715,68.329z"/>
	</g>
</g>
<g>
</g>
<g>
</g>
<g>
</g>
<g>
</g>
<g>
</g>
<g>
</g>
<g>
</g>
<g>
</g>
<g>
</g>
<g>
</g>
<g>
</g>
<g>
</g>
<g>
</g>
<g>
</g>
<g>
</g>
</svg>
