<?xml version="1.0" encoding="utf-8"?>
<!-- Generator: Adobe Illustrator 16.0.0, SVG Export Plug-In . SVG Version: 6.00 Build 0)  -->
<!DOCTYPE svg PUBLIC "-//W3C//DTD SVG 1.0//EN" "http://www.w3.org/TR/2001/REC-SVG-20010904/DTD/svg10.dtd">
<svg version="1.0" id="Layer_1" xmlns="http://www.w3.org/2000/svg" xmlns:xlink="http://www.w3.org/1999/xlink" x="0px" y="0px"
	 width="78px" height="78px" viewBox="0 0 78 78" enable-background="new 0 0 78 78" xml:space="preserve">
<g>
	<circle fill="#D3DCE2" cx="39" cy="39" r="39"/>
	<g>
		<g>
			<path fill="#624540" d="M15.721,38.233l4.053-4.051c0.698-0.698,0.698-1.833,0-2.532c-0.699-0.698-1.831-0.698-2.529,0
				l-4.054,4.056L9.136,31.65c-0.699-0.698-1.831-0.698-2.53,0c-0.698,0.699-0.698,1.834,0,2.532l4.054,4.051l-4.054,4.055
				c-0.698,0.699-0.698,1.834,0,2.532c0.348,0.347,0.807,0.525,1.267,0.525c0.457,0,0.914-0.179,1.264-0.525l4.055-4.056
				l4.054,4.056c0.347,0.347,0.804,0.525,1.263,0.525c0.46,0,0.914-0.179,1.267-0.525c0.698-0.698,0.698-1.833,0-2.532
				L15.721,38.233z"/>
			<path fill="#624540" d="M67.958,38.233l4.054-4.051c0.698-0.698,0.698-1.833,0-2.532c-0.699-0.698-1.831-0.698-2.53,0
				l-4.053,4.056l-4.053-4.056c-0.698-0.698-1.833-0.698-2.532,0c-0.698,0.699-0.698,1.834,0,2.532l4.053,4.051l-4.053,4.055
				c-0.698,0.699-0.698,1.834,0,2.532c0.35,0.347,0.81,0.525,1.267,0.525s0.914-0.179,1.263-0.525l4.056-4.056l4.053,4.056
				c0.347,0.347,0.807,0.525,1.264,0.525c0.46,0,0.917-0.179,1.267-0.525c0.698-0.698,0.698-1.833,0-2.532L67.958,38.233z"/>
		</g>
		<path fill="#624540" d="M53.628,62.838H25.72c-0.987,0-1.791-1.513-1.791-2.5s0.804-2.5,1.791-2.5h27.908
			c0.987,0,1.788,1.513,1.788,2.5S54.615,62.838,53.628,62.838z"/>
	</g>
</g>
<g>
</g>
<g>
</g>
<g>
</g>
<g>
</g>
<g>
</g>
<g>
</g>
<g>
</g>
<g>
</g>
<g>
</g>
<g>
</g>
<g>
</g>
<g>
</g>
<g>
</g>
<g>
</g>
<g>
</g>
</svg>
