<?xml version="1.0" encoding="utf-8"?>
<!-- Generator: Adobe Illustrator 16.0.0, SVG Export Plug-In . SVG Version: 6.00 Build 0)  -->
<!DOCTYPE svg PUBLIC "-//W3C//DTD SVG 1.0//EN" "http://www.w3.org/TR/2001/REC-SVG-20010904/DTD/svg10.dtd">
<svg version="1.0" id="Layer_1" xmlns="http://www.w3.org/2000/svg" xmlns:xlink="http://www.w3.org/1999/xlink" x="0px" y="0px"
	 width="78px" height="78px" viewBox="0 0 78 78" enable-background="new 0 0 78 78" xml:space="preserve">
<g>
	<circle fill="#D3DCE2" cx="39" cy="39" r="39"/>
	<g>
		<g>
			<g>
				<path fill="#624540" d="M64.004,42.139c-5.282,0-9.579-4.296-9.579-9.581c0-0.985,0.801-1.786,1.788-1.786
					c0.988,0,1.789,0.801,1.789,1.786c0,3.31,2.693,6.003,6.002,6.003c3.31,0,6.001-2.693,6.001-6.003
					c0-0.985,0.802-1.786,1.789-1.786c0.988,0,1.789,0.801,1.789,1.786C73.583,37.843,69.286,42.139,64.004,42.139z"/>
				<path fill="#624540" d="M13.998,42.139c-5.282,0-9.579-4.296-9.579-9.581c0-0.985,0.801-1.786,1.789-1.786
					c0.987,0,1.789,0.801,1.789,1.786c0,3.31,2.691,6.003,6.001,6.003c3.309,0,6.002-2.693,6.002-6.003
					c0-0.985,0.801-1.786,1.789-1.786c0.987,0,1.788,0.801,1.788,1.786C23.577,37.843,19.28,42.139,13.998,42.139z"/>
			</g>
			<g>
				<path fill="#624540" d="M38.999,65.595c-5.819,0-10.555-4.735-10.555-10.553c0-0.282,0.02-0.561,0.041-0.838
					c0.064-0.841,0.764-1.488,1.605-1.488h17.817c0.838,0,1.536,0.642,1.604,1.477c0.023,0.281,0.042,0.562,0.042,0.85
					C49.555,60.859,44.818,65.595,38.999,65.595z M31.719,55.935c0.442,3.624,3.539,6.441,7.28,6.441
					c3.742,0,6.839-2.817,7.281-6.441H31.719z"/>
			</g>
		</g>
		<g>
			<path fill="#624540" d="M38.999,65.595c-5.819,0-10.555-4.735-10.555-10.553c0-0.282,0.02-0.561,0.041-0.838
				c0.064-0.841,0.764-1.488,1.605-1.488h17.817c0.838,0,1.536,0.642,1.604,1.477c0.023,0.281,0.042,0.562,0.042,0.85
				C49.555,60.859,44.818,65.595,38.999,65.595z M31.719,55.935c0.442,3.624,3.539,6.441,7.28,6.441
				c3.742,0,6.839-2.817,7.281-6.441H31.719z"/>
		</g>
	</g>
</g>
<g>
</g>
<g>
</g>
<g>
</g>
<g>
</g>
<g>
</g>
<g>
</g>
<g>
</g>
<g>
</g>
<g>
</g>
<g>
</g>
<g>
</g>
<g>
</g>
<g>
</g>
<g>
</g>
<g>
</g>
</svg>
